<?xml version="1.0" encoding="UTF-8" standalone="no"?><!DOCTYPE svg PUBLIC "-//W3C//DTD SVG 1.1//EN" "http://www.w3.org/Graphics/SVG/1.1/DTD/svg11.dtd"><svg width="100%" height="100%" viewBox="0 0 342 352" version="1.1" xmlns="http://www.w3.org/2000/svg" xmlns:xlink="http://www.w3.org/1999/xlink" xml:space="preserve" xmlns:serif="http://www.serif.com/" style="fill-rule:evenodd;clip-rule:evenodd;stroke-linejoin:round;stroke-miterlimit:2;"><rect id="Artboard1" x="0" y="0" width="341.9" height="351.282" style="fill:none;"/><g><path d="M331.811,23.115l-313.377,315.933c-2.429,2.449 -6.375,2.451 -8.805,0.003c-2.431,-2.448 -2.432,-6.423 -0.003,-8.872l313.377,-315.933c2.429,-2.45 6.375,-2.451 8.805,-0.003c2.431,2.447 2.432,6.423 0.003,8.872Z" style="fill:#121212;"/><path d="M329.813,330.179l-313.376,-315.933c-2.429,-2.45 -6.375,-2.451 -8.806,-0.003c-2.43,2.447 -2.431,6.423 -0.002,8.872l313.376,315.933c2.43,2.449 6.375,2.451 8.806,0.003c2.431,-2.448 2.432,-6.423 0.002,-8.872Z" style="fill:#121212;"/></g></svg>