<?xml version="1.0" encoding="UTF-8" standalone="no"?><!DOCTYPE svg PUBLIC "-//W3C//DTD SVG 1.1//EN" "http://www.w3.org/Graphics/SVG/1.1/DTD/svg11.dtd"><svg width="100%" height="100%" viewBox="0 0 1997 758" version="1.1" xmlns="http://www.w3.org/2000/svg" xmlns:xlink="http://www.w3.org/1999/xlink" xml:space="preserve" xmlns:serif="http://www.serif.com/" style="fill-rule:evenodd;clip-rule:evenodd;stroke-linejoin:round;stroke-miterlimit:2;"><rect id="Artboard1" x="0" y="0" width="1996.77" height="757.721" style="fill:none;"/><g><path d="M180.688,474.804c27.986,-0 49.703,7.372 65.151,22.118c15.447,14.745 24.024,31.497 25.729,50.255l-29.19,0c-3.31,-14.244 -9.906,-25.529 -19.786,-33.854c-9.881,-8.326 -23.748,-12.489 -41.603,-12.489c-21.768,-0 -39.347,7.649 -52.738,22.946c-13.392,15.297 -20.087,38.744 -20.087,70.342c-0,25.88 6.043,46.87 18.131,62.969c12.087,16.1 30.118,24.15 54.092,24.15c22.068,-0 38.87,-8.476 50.405,-25.429c6.119,-8.927 10.683,-20.663 13.693,-35.208l29.19,-0c-2.608,23.272 -11.235,42.782 -25.88,58.53c-17.554,18.959 -41.228,28.438 -71.019,28.438c-25.68,0 -47.246,-7.774 -64.7,-23.322c-22.971,-20.563 -34.457,-52.311 -34.457,-95.244c0,-32.6 8.627,-59.333 25.88,-80.197c18.658,-22.67 44.387,-34.005 77.189,-34.005Zm126.54,6.018l27.084,0l-0,221.033l-27.084,-0l0,-221.033Zm132.71,55.221c20.764,-0 38.318,6.921 52.663,20.764c14.344,13.843 21.516,34.205 21.516,61.088c-0,25.981 -6.32,47.447 -18.959,64.399c-12.639,16.953 -32.249,25.429 -58.831,25.429c-22.169,-0 -39.773,-7.498 -52.813,-22.495c-13.04,-14.996 -19.561,-35.133 -19.561,-60.411c0,-27.084 6.872,-48.65 20.614,-64.7c13.742,-16.05 32.199,-24.074 55.371,-24.074Zm-1.053,148.358c17.955,-0 30.268,-6.796 36.939,-20.388c6.67,-13.592 10.006,-28.714 10.006,-45.365c-0,-15.047 -2.408,-27.285 -7.223,-36.714c-7.623,-14.845 -20.764,-22.268 -39.421,-22.268c-16.551,-0 -28.589,6.319 -36.112,18.958c-7.523,12.639 -11.285,27.886 -11.285,45.741c0,17.153 3.762,31.447 11.285,42.883c7.523,11.435 19.46,17.153 35.811,17.153Zm134.515,-143.694l-0,106.98c-0,8.226 1.304,14.946 3.912,20.163c4.815,9.629 13.793,14.444 26.933,14.444c18.858,0 31.698,-8.426 38.519,-25.278c3.712,-9.028 5.567,-21.416 5.567,-37.165l0,-79.144l27.084,0l-0,161.148l-25.579,-0l0.301,-23.774c-3.511,6.119 -7.874,11.285 -13.091,15.498c-10.331,8.426 -22.87,12.639 -37.616,12.639c-22.971,0 -38.619,-7.674 -46.945,-23.021c-4.514,-8.225 -6.77,-19.209 -6.77,-32.952l-0,-109.538l27.685,0Zm202.224,-2.859c12.338,0 22.67,2.608 30.996,7.824c4.815,3.01 10.282,8.276 16.401,15.799l-0,-81.401l26.03,-0l-0,221.785l-24.375,-0l-0,-22.42c-6.32,9.931 -13.793,17.103 -22.419,21.517c-8.627,4.413 -18.508,6.62 -29.642,6.62c-17.955,0 -33.503,-7.548 -46.644,-22.645c-13.141,-15.096 -19.711,-35.183 -19.711,-60.261c0,-23.472 5.994,-43.81 17.981,-61.013c11.987,-17.203 29.115,-25.805 51.383,-25.805Zm-40.776,85.314c0,17.253 3.662,31.697 10.984,43.333c7.323,11.636 19.059,17.454 35.209,17.454c12.539,0 22.846,-5.391 30.92,-16.175c8.075,-10.783 12.113,-26.256 12.113,-46.418c-0,-20.363 -4.163,-35.434 -12.489,-45.215c-8.325,-9.78 -18.607,-14.67 -30.845,-14.67c-13.642,0 -24.701,5.216 -33.177,15.648c-8.477,10.433 -12.715,25.78 -12.715,46.043Zm266.323,-143.092c27.184,0.401 46.443,8.275 57.778,23.623c6.821,9.429 10.232,20.714 10.232,33.854c-0,13.542 -3.411,24.426 -10.232,32.651c-3.812,4.614 -9.429,8.827 -16.852,12.639c11.335,4.113 19.886,10.633 25.654,19.561c5.768,8.927 8.652,19.761 8.652,32.5c-0,13.14 -3.31,24.927 -9.931,35.359c-4.213,6.921 -9.479,12.739 -15.799,17.454c-7.122,5.417 -15.523,9.128 -25.202,11.134c-9.68,2.006 -20.188,3.01 -31.523,3.01l-100.51,-0l-0,-221.785l107.733,-0Zm-63.496,124.133l-0,59.133l54.468,-0c9.73,-0 17.303,-1.304 22.72,-3.912c9.83,-4.815 14.745,-14.044 14.745,-27.686c0,-11.536 -4.764,-19.46 -14.294,-23.773c-5.316,-2.408 -12.789,-3.662 -22.419,-3.762l-55.22,0Zm-0,-85.614l-0,48.901l54.468,-0c9.73,-0 17.629,-1.831 23.698,-5.492c6.069,-3.662 9.103,-10.157 9.103,-19.485c-0,-10.332 -4.012,-17.153 -12.037,-20.464c-6.922,-2.307 -15.749,-3.46 -26.482,-3.46l-48.75,-0Zm331.623,101.488c0,24.054 -6.921,44.625 -20.764,61.714c-13.842,17.087 -34.857,25.631 -63.044,25.631c-28.187,-0 -49.202,-8.544 -63.045,-25.631c-13.843,-17.089 -20.764,-37.66 -20.764,-61.714c-0,-23.653 6.921,-44.148 20.764,-61.486c13.843,-17.339 34.858,-26.009 63.045,-26.009c28.187,-0 49.202,8.67 63.044,26.009c13.843,17.338 20.764,37.833 20.764,61.486Zm-83.959,51.384c12.539,-0 22.169,-4.457 28.889,-13.37c6.721,-8.915 10.081,-21.587 10.081,-38.014c0,-16.427 -3.36,-29.072 -10.081,-37.936c-6.72,-8.865 -16.35,-13.297 -28.889,-13.297c-12.539,-0 -22.193,4.432 -28.964,13.297c-6.771,8.864 -10.157,21.509 -10.157,37.936c0,16.427 3.386,29.099 10.157,38.014c6.771,8.913 16.425,13.37 28.964,13.37Zm179.053,-69.364c7.924,-1.004 13.592,-2.257 17.002,-3.762c6.119,-2.608 9.179,-6.671 9.179,-12.188c-0,-6.72 -2.332,-11.36 -6.997,-13.918c-4.664,-2.558 -11.51,-3.836 -20.538,-3.836c-10.132,-0 -17.304,2.507 -21.517,7.523c-3.009,3.711 -5.015,8.727 -6.018,15.046l-41.378,0c0.903,-14.344 4.915,-26.13 12.037,-35.359c11.335,-14.445 30.795,-21.667 58.38,-21.667c17.956,0 33.905,3.561 47.848,10.683c13.943,7.122 20.915,20.564 20.915,40.325l-0,75.232c-0,5.216 0.1,11.535 0.301,18.958c0.301,5.618 1.153,9.43 2.558,11.436c1.404,2.006 3.51,3.661 6.319,4.965l0,6.32l-46.644,-0c-1.304,-3.311 -2.207,-6.42 -2.708,-9.329c-0.502,-2.909 -0.903,-6.219 -1.204,-9.931c-5.918,6.42 -12.739,11.887 -20.463,16.401c-9.229,5.316 -19.661,7.974 -31.297,7.974c-14.846,0 -27.109,-4.238 -36.788,-12.714c-9.68,-8.476 -14.52,-20.488 -14.52,-36.036c-0,-20.162 7.774,-34.757 23.322,-43.785c8.526,-4.915 21.065,-8.426 37.616,-10.533l14.595,-1.805Zm26.03,20.011c-2.708,1.706 -5.442,3.085 -8.2,4.138c-2.759,1.053 -6.545,2.031 -11.36,2.934l-9.63,1.806c-9.028,1.605 -15.498,3.561 -19.41,5.868c-6.62,3.912 -9.93,9.981 -9.93,18.206c-0,7.323 2.031,12.614 6.093,15.874c4.063,3.26 9.003,4.89 14.821,4.89c9.229,0 17.73,-2.708 25.504,-8.125c7.774,-5.417 11.811,-15.297 12.112,-29.641l0,-15.95Zm170.025,-88.172c0.803,0 1.48,0.025 2.031,0.075c0.552,0.051 1.781,0.126 3.687,0.226l-0,43.936c-2.709,-0.301 -5.116,-0.502 -7.222,-0.602c-2.107,-0.1 -3.812,-0.151 -5.116,-0.151c-17.254,0 -28.839,5.618 -34.758,16.852c-3.31,6.32 -4.965,16.05 -4.965,29.191l0,78.392l-43.183,-0l-0,-164.007l40.926,0l0,28.588c6.621,-10.933 12.388,-18.406 17.304,-22.419c8.024,-6.72 18.457,-10.081 31.296,-10.081Zm91.332,0c9.931,0 18.758,2.182 26.482,6.545c7.724,4.364 13.993,10.407 18.808,18.131l-0,-78.241l43.484,-0l0,221.484l-41.678,-0l-0,-22.721c-6.119,9.73 -13.091,16.802 -20.915,21.216c-7.824,4.414 -17.554,6.62 -29.19,6.62c-19.159,0 -35.284,-7.749 -48.374,-23.246c-13.091,-15.498 -19.636,-35.385 -19.636,-59.66c-0,-27.986 6.445,-50.004 19.335,-66.054c12.889,-16.049 30.118,-24.074 51.684,-24.074Zm9.329,136.923c12.137,-0 21.366,-4.514 27.685,-13.542c6.32,-9.028 9.48,-20.714 9.48,-35.058c-0,-20.062 -5.066,-34.406 -15.197,-43.033c-6.219,-5.216 -13.442,-7.824 -21.667,-7.824c-12.539,-0 -21.742,4.739 -27.61,14.219c-5.868,9.479 -8.803,21.24 -8.803,35.284c0,15.146 2.985,27.259 8.953,36.337c5.969,9.078 15.021,13.617 27.159,13.617Zm151.819,-21.366c0.902,7.623 2.858,13.04 5.868,16.25c5.316,5.718 15.147,8.577 29.491,8.577c8.426,-0 15.121,-1.254 20.087,-3.762c4.965,-2.508 7.448,-6.269 7.448,-11.285c-0,-4.815 -2.006,-8.476 -6.019,-10.984c-4.012,-2.508 -18.908,-6.821 -44.688,-12.94c-18.557,-4.614 -31.647,-10.382 -39.271,-17.303c-7.624,-6.821 -11.435,-16.652 -11.435,-29.491c-0,-15.147 5.943,-28.162 17.83,-39.046c11.886,-10.883 28.613,-16.325 50.18,-16.325c20.463,-0 37.139,4.087 50.029,12.263c12.89,8.175 20.288,22.294 22.194,42.355l-42.883,0c-0.602,-5.517 -2.156,-9.88 -4.664,-13.09c-4.715,-5.818 -12.739,-8.727 -24.074,-8.727c-9.329,0 -15.975,1.455 -19.937,4.364c-3.962,2.909 -5.943,6.319 -5.943,10.231c-0,4.915 2.106,8.476 6.319,10.683c4.213,2.307 19.109,6.269 44.688,11.887c17.053,4.012 29.842,10.081 38.369,18.206c8.426,8.225 12.639,18.507 12.639,30.845c-0,16.25 -6.044,29.516 -18.131,39.798c-12.088,10.282 -30.77,15.423 -56.048,15.423c-25.78,-0 -44.814,-5.442 -57.102,-16.326c-12.288,-10.883 -18.432,-24.751 -18.432,-41.603l43.485,-0Zm-1431.67,-232.514c-6.843,11.193 -21.486,14.725 -32.679,7.882c-11.193,-6.843 -14.725,-21.486 -7.882,-32.679c66.612,-108.961 191.503,-189.3 345.642,-189.3c64.131,-0 124.883,11.833 179.149,32.902c80.867,-119.177 223.21,-198.596 385.338,-198.596c228.981,0 418.278,158.336 451.226,363.626c2.079,12.953 -6.75,25.157 -19.703,27.236c-12.954,2.079 -25.158,-6.75 -27.237,-19.703c-29.442,-183.45 -199.665,-323.619 -404.286,-323.619c-152.284,0 -285.395,77.593 -355.806,192.98c-6.203,10.165 -18.969,14.172 -29.868,9.375c-53.18,-23.409 -114.101,-36.661 -178.813,-36.661c-135.951,0 -246.329,70.453 -305.081,166.557Z" style="fill:url(#_Linear1);"/></g><defs><linearGradient id="_Linear1" x1="0" y1="0" x2="1" y2="0" gradientUnits="userSpaceOnUse" gradientTransform="matrix(2128.02,0,0,774.848,-101.938,384.079)"><stop offset="0" style="stop-color:#00d1ff;stop-opacity:1"/><stop offset="1" style="stop-color:#0d6ec3;stop-opacity:1"/></linearGradient></defs></svg>