<?xml version="1.0" encoding="UTF-8" standalone="no"?><!DOCTYPE svg PUBLIC "-//W3C//DTD SVG 1.1//EN" "http://www.w3.org/Graphics/SVG/1.1/DTD/svg11.dtd"><svg width="100%" height="100%" viewBox="0 0 1467 424" version="1.1" xmlns="http://www.w3.org/2000/svg" xmlns:xlink="http://www.w3.org/1999/xlink" xml:space="preserve" xmlns:serif="http://www.serif.com/" style="fill-rule:evenodd;clip-rule:evenodd;stroke-linejoin:round;stroke-miterlimit:2;"><rect id="Artboard1" x="0" y="0" width="1466.03" height="423.238" style="fill:none;"/><path d="M107.65,226.041l-46.134,0l0,-177.867l46.134,0l85.066,108.8l0,-108.8l46.134,0l-0,177.867l-46.134,0l-85.066,-108.8l-0,108.8Zm356.8,-88.8c-0,23.467 -9.067,48.267 -28,66.4c-18.134,17.333 -43.734,26.4 -70.134,26.4c-26.4,0 -52,-9.067 -70.133,-26.4c-18.933,-18.133 -28,-42.933 -28,-66.4c0,-23.733 9.067,-48.8 28,-66.667c18.133,-17.333 43.733,-26.4 70.133,-26.4c26.4,0 52,9.067 70.134,26.4c18.933,17.867 28,42.934 28,66.667Zm-98.134,-48.267c-12.8,0 -26.4,4.534 -36,14.134c-9.6,9.333 -14.133,22.4 -14.133,34.933c0,15.733 7.467,26.667 14.133,33.067c8.534,8.266 20.534,14.133 36,14.133c15.734,0 27.467,-5.6 35.734,-13.867c8.266,-8.266 14.4,-20.533 14.4,-34.133c-0,-13.867 -6.134,-26.133 -14.4,-34.133c-9.867,-9.334 -23.467,-14.134 -35.734,-14.134Zm102.134,-40.8l50.4,0l42.666,108.267l43.2,-108.267l50.134,0l-75.734,177.867l-36,0l-74.666,-177.867Zm311.2,177.867l-10.934,-29.867l-64.533,0l-12,29.867l-48.8,0l68.267,-177.867l50.4,0l66.933,177.867l-49.333,0Zm-62.667,-65.067l39.467,0l-20,-57.6l-19.467,57.6Zm223.733,-94.133l-43.2,0l0,159.2l-19.733,0l0,-159.2l-43.2,0l0,-18.667l106.133,0l0,18.667Zm118.934,-18.667l-0,18.667l-72.534,0l0,52.8l70.4,0l0,18.667l-70.4,-0l0,69.066l72.534,0l-0,18.667l-92.267,0l0,-177.867l92.267,0Zm172.266,14.667l0,24.533c-5.6,-5.6 -14.133,-12.266 -23.2,-16.533c-9.333,-4.267 -20.266,-6.933 -30.666,-6.933c-41.067,-0 -71.467,33.066 -71.467,74.133c0,48.267 39.2,72.533 71.733,72.533c12,0 23.734,-3.466 33.067,-8.266c10.133,-5.067 17.333,-11.734 20.533,-14.934l0,24.534c-19.733,14.133 -40.266,17.333 -53.6,17.333c-52.8,0 -92,-40 -92,-91.467c0,-53.066 39.734,-92.533 93.067,-92.533c10.667,0 31.2,1.333 52.533,17.6Zm56,-14.667l0,72.267l91.2,0l0,-72.267l19.734,0l-0,177.867l-19.734,0l0,-86.933l-91.2,-0l0,86.933l-19.733,0l0,-177.867l19.733,0Zm115.804,308.094c-1.405,7.707 -1.646,8.049 -8.085,12.514c-8.285,5.746 -9.081,4.212 -18.972,2.315c-127.391,-24.436 -537.277,-97.892 -1020.28,-25.565c-154.439,23.127 -252.122,51.967 -274.324,59.128c-2.406,0.776 -2.527,0.794 -4.807,-0.325c-0.063,-0.031 -3.211,-3.62 -3.209,-3.657c0.099,-1.593 -0.374,-3.345 0.329,-4.778c1.503,-3.06 2.02,-2.662 5.256,-3.765c31.551,-10.751 479.866,-158.106 1124.23,-84.88c86.194,9.795 152.985,20.985 184.23,26.359c7.826,1.346 11.805,7.113 12.481,8.092c4.45,6.449 4.555,6.854 3.151,14.562Z" style="fill:#4f46e5;"/></svg>